<?xml version="1.0" encoding="UTF-8"?>
<svg width="18px" height="20px" viewBox="0 0 18 20" version="1.1" xmlns="http://www.w3.org/2000/svg" xmlns:xlink="http://www.w3.org/1999/xlink">
    <!-- Generator: Sketch 63.1 (92452) - https://sketch.com -->
    <title>cal</title>
    <desc>Created with Sketch.</desc>
    <g id="Page-1" stroke="none" stroke-width="1" fill="none" fill-rule="evenodd">
        <g id="icons" transform="translate(-111.000000, -35.000000)" fill="#000000">
            <path d="M125,46 L120,46 L120,51 L125,51 L125,46 L125,46 Z M124,35 L124,37 L116,37 L116,35 L114,35 L114,37 L113,37 C111.89,37 111.01,37.9 111.01,39 L111,53 C111,54.1 111.89,55 113,55 L127,55 C128.1,55 129,54.1 129,53 L129,39 C129,37.9 128.1,37 127,37 L126,37 L126,35 L124,35 L124,35 Z M127,53 L113,53 L113,42 L127,42 L127,53 L127,53 Z" id="cal"></path>
        </g>
    </g>
</svg>