<?xml version="1.0" encoding="UTF-8"?>
<svg width="13px" height="22px" viewBox="0 0 13 22" version="1.1" xmlns="http://www.w3.org/2000/svg" xmlns:xlink="http://www.w3.org/1999/xlink">
    <!-- Generator: Sketch 63.1 (92452) - https://sketch.com -->
    <title>FB</title>
    <desc>Created with Sketch.</desc>
    <g id="Page-1" stroke="none" stroke-width="1" fill="none" fill-rule="evenodd">
        <g id="BKG" transform="translate(-204.000000, -733.000000)" fill="#4300FF" fill-rule="nonzero">
            <path d="M206.999886,739 C206.999886,735.686292 209.686076,733 212.999659,733 L215.999545,733 C216.551809,733 216.999507,733.447715 216.999507,734 L216.999507,738 C216.999507,738.552285 216.551809,739 215.999545,739 L212.999659,739 L212.999659,741 L215.999545,741 C216.650092,741 217.127432,741.611389 216.969651,742.242536 L215.969689,746.242536 C215.858401,746.687703 215.458433,747 214.999583,747 L212.999659,747 L212.999659,754 C212.999659,754.552285 212.551961,755 211.999697,755 L207.999848,755 C207.447585,755 206.999886,754.552285 206.999886,754 L206.999886,747 L204.999962,747 C204.447698,747 204,746.552285 204,746 L204,742 C204,741.447715 204.447698,741 204.999962,741 L206.999886,741 L206.999886,739 Z M214.999583,735 L212.999659,735 C210.790604,735 208.999811,736.790861 208.999811,739 L208.999811,742 C208.999811,742.552285 208.552112,743 207.999848,743 L205.999924,743 L205.999924,745 L207.999848,745 C208.552112,745 208.999811,745.447715 208.999811,746 L208.999811,753 L210.999735,753 L210.999735,746 C210.999735,745.447715 211.447433,745 211.999697,745 L214.218836,745 L214.718817,743 L211.999697,743 C211.447433,743 210.999735,742.552285 210.999735,742 L210.999735,739 C210.999735,737.895431 211.895131,737 212.999659,737 L214.999583,737 L214.999583,735 Z" id="FB"></path>
        </g>
    </g>
</svg>