<?xml version="1.0" encoding="UTF-8"?>
<svg width="22px" height="22px" viewBox="0 0 22 22" version="1.1" xmlns="http://www.w3.org/2000/svg" xmlns:xlink="http://www.w3.org/1999/xlink">
    <!-- Generator: Sketch 63.1 (92452) - https://sketch.com -->
    <title>insta</title>
    <desc>Created with Sketch.</desc>
    <g id="Page-1" stroke="none" stroke-width="1" fill="none" fill-rule="evenodd">
        <g id="BKG" transform="translate(-279.000000, -733.000000)" fill="#4300FF" fill-rule="nonzero">
            <path d="M295,733 C298.313708,733 301,735.686292 301,739 L301,749 C301,752.313708 298.313708,755 295,755 L285,755 C281.686292,755 279,752.313708 279,749 L279,739 C279,735.686292 281.686292,733 285,733 L295,733 Z M295,735 L285,735 C282.790861,735 281,736.790861 281,739 L281,749 C281,751.209139 282.790861,753 285,753 L295,753 C297.209139,753 299,751.209139 299,749 L299,739 C299,736.790861 297.209139,735 295,735 Z M290.776683,739.010817 C292.955404,739.333893 294.666107,741.044596 294.989183,743.223317 C295.305587,745.357031 294.217966,747.453122 292.291217,748.422909 C290.364467,749.392695 288.032994,749.01753 286.507732,747.492268 C284.98247,745.967006 284.607305,743.635533 285.577091,741.708783 C286.546878,739.782034 288.642969,738.694413 290.776683,739.010817 Z M287.363561,742.607964 C286.781689,743.764013 287.006789,745.162897 287.921946,746.078054 C288.837103,746.993211 290.235987,747.218311 291.392036,746.636439 C292.548086,746.054567 293.200658,744.796912 293.010817,743.516683 C292.81697,742.209451 291.790549,741.18303 290.483317,740.989183 C289.203088,740.799342 287.945433,741.451914 287.363561,742.607964 Z" id="insta"></path>
        </g>
    </g>
</svg>