<?xml version="1.0" encoding="UTF-8"?>
<svg width="24px" height="23px" viewBox="0 0 24 23" version="1.1" xmlns="http://www.w3.org/2000/svg" xmlns:xlink="http://www.w3.org/1999/xlink">
    <!-- Generator: Sketch 63.1 (92452) - https://sketch.com -->
    <title>noun_Share_3132</title>
    <desc>Created with Sketch.</desc>
    <g id="Page-1" stroke="none" stroke-width="1" fill="none" fill-rule="evenodd">
        <g id="Main" transform="translate(-951.000000, -750.000000)" fill="#4B00FF" fill-rule="nonzero">
            <g id="Card-Copy" transform="translate(412.000000, 739.000000)">
                <g id="noun_Share_3132" transform="translate(539.000000, 11.000000)">
                    <path d="M1.58480838,22.6895966 C0.708774798,22.6890936 0.000503033923,21.9810733 4.4408921e-14,21.1055428 L4.4408921e-14,21.1055428 L4.4408921e-14,4.62640299 C0.000503033923,3.75087245 0.708774798,3.04260069 1.58480838,3.04209765 L1.58480838,3.04209765 L10.0815544,3.04209765 L7.81714717,5.30575031 L2.26365266,5.30575031 L2.26365266,20.4261955 L16.7180809,20.4266985 L16.7180809,17.38611 L18.9822366,15.1224573 L18.9817336,21.1055428 C18.980979,21.9805703 18.2729588,22.6890936 17.3971767,22.6900997 L17.3971767,22.6900997 L1.58480838,22.6895966 L1.58480838,22.6895966 Z" id="Path"></path>
                    <path d="M16.6431289,2.84239318 L16.6431289,5.15143483e-14 L24,7.35687113 L16.6116893,14.7451819 L16.6116893,11.7898576 C16.6116893,11.7898576 12.9430628,11.0619675 9.17106297,13.4141541 C7.10636024,14.6928664 5.71220172,16.3752633 4.85327129,17.7005062 C4.85327129,17.7005062 5.13245512,13.1103216 7.77338322,8.92885214 C11.0750464,3.70132361 16.6431289,2.84239318 16.6431289,2.84239318 Z" id="Path"></path>
                </g>
            </g>
        </g>
    </g>
</svg>