<?xml version="1.0" encoding="UTF-8"?>
<svg width="24px" height="20px" viewBox="0 0 24 20" version="1.1" xmlns="http://www.w3.org/2000/svg" xmlns:xlink="http://www.w3.org/1999/xlink">
    <!-- Generator: Sketch 63.1 (92452) - https://sketch.com -->
    <title>twit</title>
    <desc>Created with Sketch.</desc>
    <g id="Page-1" stroke="none" stroke-width="1" fill="none" fill-rule="evenodd">
        <g id="BKG" transform="translate(-238.000000, -734.000000)" fill="#4300FF" fill-rule="nonzero">
            <path d="M260.421969,734.19341 C261.176887,733.660095 262.188321,734.349666 261.969727,735.248633 C261.627242,736.6571 260.940725,737.955313 259.975301,739.028191 C259.990175,739.190388 259.997904,739.353645 259.998444,739.517846 C259.998444,751.393507 248.55423,757.494102 238.51628,751.90893 C237.595747,751.39674 237.989363,749.991083 239.041583,750.033 C240.727909,750.100178 242.397241,749.764404 243.915205,749.064128 C241.711422,747.70367 240.300299,745.902549 239.608039,743.77186 C238.89328,741.571924 238.997609,739.260069 239.5939,737.064467 C239.774275,736.400309 239.957607,735.899876 240.087857,735.606365 C240.403477,734.895133 241.373122,734.800624 241.819744,735.437562 C243.491062,737.821066 246.133665,739.308957 248.999943,739.524361 C248.984585,737.236696 250.388674,735.177689 252.525147,734.360994 C254.457226,733.622431 256.618578,734.041164 258.131553,735.397255 C258.943516,735.098334 259.713667,734.693793 260.421969,734.19341 Z M258.147076,737.502624 C257.770507,737.616191 257.362438,737.498118 257.104358,737.200919 C256.146239,736.097571 254.602247,735.710651 253.238208,736.232073 C251.87417,736.753495 250.98024,738.072343 250.999901,739.547887 L250.999901,740.549255 C250.999901,741.092185 250.567898,741.536213 250.02598,741.550287 C246.765773,741.634953 243.65104,740.349616 241.405515,738.059113 C241.010545,739.766537 240.981665,741.527312 241.509577,743.152159 C242.186494,745.235624 243.73609,746.926988 246.406783,748.11578 C247.123431,748.434777 247.211121,749.418235 246.56225,749.859362 C245.443329,750.620045 244.217318,751.190944 242.933209,751.558039 C250.611118,753.581051 257.998768,748.476291 257.998773,739.521157 C257.998057,739.304213 257.97723,739.087805 257.936561,738.874718 C257.8739,738.546409 257.978932,738.208434 258.21656,737.97373 C258.439286,737.753744 258.645576,737.519275 258.834321,737.272278 C258.607854,737.355948 258.378671,737.432779 258.147076,737.502624 Z" id="twit"></path>
        </g>
    </g>
</svg>