<?xml version="1.0" standalone="no"?>
<!DOCTYPE svg PUBLIC "-//W3C//DTD SVG 20010904//EN"
 "http://www.w3.org/TR/2001/REC-SVG-20010904/DTD/svg10.dtd">
<svg version="1.0" xmlns="http://www.w3.org/2000/svg"
 width="1441.000000pt" height="1441.000000pt" viewBox="0 0 1441.000000 1441.000000"
 preserveAspectRatio="xMidYMid meet">
<metadata>
Created by potrace 1.11, written by Peter Selinger 2001-2013
</metadata>
<g transform="translate(0.000000,1441.000000) scale(0.100000,-0.100000)"
fill="#000000" stroke="none">
<path d="M9263 10728 l-1681 -789 -659 370 -659 371 -1412 0 -1412 0 0 -2952
0 -2953 2106 -947 2105 -947 1652 1422 1652 1423 3 2897 c1 1593 -1 2897 -5
2896 -5 -1 -765 -356 -1690 -791z m-2572 -1524 c387 -218 708 -399 712 -403 8
-8 -2868 -2491 -2884 -2491 -5 0 -9 725 -9 1645 l0 1645 738 0 739 0 704 -396z
m3195 -620 c-3 -8 -3503 -3027 -4196 -3620 -13 -11 -71 13 -363 144 -191 86
-346 160 -344 165 1 5 1105 958 2452 2118 l2450 2110 3 -453 c1 -249 0 -458
-2 -464z m4 -1893 l0 -460 -1205 -1038 c-663 -571 -1210 -1040 -1216 -1041 -5
-2 -167 67 -358 153 l-349 157 71 62 c271 236 3050 2626 3053 2626 2 0 4 -207
4 -459z"/>
</g>
</svg>
